<svg xmlns="http://www.w3.org/2000/svg" width="615" height="122" viewBox="0 0 615 122"><path d="M 16.0 23.0 L 40.0 58.0 L 16.0 93.0" stroke="#1E3A56" stroke-width="15.0" stroke-linecap="round" stroke-linejoin="round" fill="none" opacity="0.55"/><path d="M 52.0 23.0 L 76.0 58.0 L 52.0 93.0" stroke="#00A9FF" stroke-width="15.0" stroke-linecap="round" stroke-linejoin="round" fill="none"/><path d="M 88.0 23.0 L 112.0 58.0 L 88.0 93.0" stroke="#F4581C" stroke-width="15.0" stroke-linecap="round" stroke-linejoin="round" fill="none"/><path transform="translate(139.50,93.00) scale(0.046980,-0.046980)" d="M673 -23Q500 -23 372.5 31.0Q245 85 173.0 188.0Q101 291 95 438H358Q365 360 407.0 308.0Q449 256 518.0 230.5Q587 205 671 205Q759 205 826.5 232.0Q894 259 932.0 307.5Q970 356 970 420Q970 478 936.5 516.0Q903 554 842.5 580.5Q782 607 701 627L532 671Q345 719 240.5 816.0Q136 913 136 1071Q136 1203 207.0 1302.0Q278 1401 401.0 1455.5Q524 1510 680 1510Q839 1510 959.0 1455.0Q1079 1400 1146.5 1303.0Q1214 1206 1217 1082H958Q948 1178 872.5 1230.5Q797 1283 676 1283Q592 1283 531.5 1257.5Q471 1232 438.5 1188.0Q406 1144 406 1087Q406 1025 444.5 985.0Q483 945 541.5 921.0Q600 897 660 882L799 846Q882 826 960.0 793.0Q1038 760 1100.5 709.5Q1163 659 1200.0 587.0Q1237 515 1237 418Q1237 287 1170.0 187.5Q1103 88 977.0 32.5Q851 -23 673 -23Z" fill="#1E3A56"/><path transform="translate(202.08,93.00) scale(0.046980,-0.046980)" d="M398 655V0H138V1490H394V912Q437 1006 505 1060Q596 1132 733 1132Q848 1132 934.5 1083.0Q1021 1034 1068.5 940.0Q1116 846 1116 711V0H855V671Q855 783 797.0 847.0Q739 911 637 911Q568 911 514.0 881.0Q460 851 429.0 793.5Q398 736 398 655Z" fill="#1E3A56"/><path transform="translate(260.99,93.00) scale(0.046980,-0.046980)" d="M623 -23Q460 -23 340.0 49.5Q220 122 154.5 251.5Q89 381 89 553Q89 727 154.5 857.5Q220 988 340.0 1060.0Q460 1132 623 1132Q787 1132 907.0 1060.0Q1027 988 1092.5 857.5Q1158 727 1158 553Q1158 381 1092.5 251.5Q1027 122 907.0 49.5Q787 -23 623 -23ZM623 188Q714 188 774.5 237.0Q835 286 864.5 369.0Q894 452 894 554Q894 657 864.5 740.0Q835 823 774.5 872.0Q714 921 623 921Q532 921 472.5 872.0Q413 823 383.5 740.5Q354 658 354 554Q354 452 383.5 369.0Q413 286 472.5 237.0Q532 188 623 188Z" fill="#1E3A56"/><path transform="translate(319.57,93.00) scale(0.046980,-0.046980)" d="M138 -418V1118H392V933H409Q429 973 466.0 1019.0Q503 1065 566.5 1098.5Q630 1132 729 1132Q859 1132 963.0 1066.0Q1067 1000 1128.5 871.5Q1190 743 1190 557Q1190 373 1130.0 244.0Q1070 115 965.5 47.5Q861 -20 728 -20Q633 -20 569.0 12.5Q505 45 467.0 91.0Q429 137 409 177H398V-418ZM658 194Q745 194 804.0 241.5Q863 289 893.0 371.5Q923 454 923 558Q923 662 893.5 743.5Q864 825 805.0 871.5Q746 918 658 918Q572 918 513.0 873.0Q454 828 423.5 747.5Q393 667 393 558Q393 449 423.5 367.0Q454 285 513.5 239.5Q573 194 658 194Z" fill="#1E3A56"/><path transform="translate(379.61,93.00) scale(0.046980,-0.046980)" d="M150 0V1490H707Q878 1490 995.0 1430.0Q1112 1370 1172.0 1262.5Q1232 1155 1232.0 1013.0Q1232 871 1171.5 766.0Q1111 661 993 604Q979 597 964 591L1287 0H988L695 547H417V0ZM417 768H668Q769 768 833.0 796.5Q897 825 928.0 880.0Q959 935 959 1013Q959 1093 928.0 1149.5Q897 1206 832.5 1236.0Q768 1266 666 1266H417Z" fill="#F4581C"/><path transform="translate(442.38,93.00) scale(0.046980,-0.046980)" d="M450 -23Q344 -23 259.0 15.5Q174 54 125.0 129.0Q76 204 76 314Q76 409 111.5 471.0Q147 533 207.5 570.0Q268 607 344.0 626.0Q420 645 502 653Q599 664 660.0 672.0Q721 680 749.5 698.0Q778 716 778 754V759Q778 814 756.0 852.5Q734 891 690.5 911.5Q647 932 583 932Q518 932 470.5 912.0Q423 892 393.0 860.0Q363 828 349 791L108 840Q141 939 210.0 1003.5Q279 1068 374.5 1100.0Q470 1132 582 1132Q661 1132 741.5 1113.5Q822 1095 889.0 1051.0Q956 1007 997.0 933.0Q1038 859 1038 747V0H789V154H779Q754 107 710.5 66.5Q667 26 602.5 1.5Q538 -23 450 -23ZM517 170Q598 170 656.5 202.0Q715 234 747.5 286.5Q780 339 780 401V533Q767 523 736.5 514.0Q706 505 668.5 498.0Q631 491 594.5 486.0Q558 481 533 478Q475 470 428.0 452.0Q381 434 354.5 401.5Q328 369 328 317Q328 269 352.5 236.5Q377 204 419.5 187.0Q462 170 517 170Z" fill="#F4581C"/><path transform="translate(497.63,93.00) scale(0.046980,-0.046980)" d="M398 1490V0H138V1490Z" fill="#F4581C"/><path transform="translate(522.81,93.00) scale(0.046980,-0.046980)" d="M398 1490V0H138V1490Z" fill="#F4581C"/><path transform="translate(547.99,93.00) scale(0.046980,-0.046980)" d="M127 -399 188 -196 219 -204Q278 -219 324.0 -212.5Q370 -206 401.0 -172.5Q432 -139 445 -75L461 -4L39 1118H317L521 510Q557 402 580 295Q588 256 597 217Q607 256 617 296Q644 403 680 510L891 1118H1166L686 -144Q652 -233 601.0 -296.5Q550 -360 476.0 -393.0Q402 -426 301 -426Q246 -426 199.5 -418.0Q153 -410 127 -399Z" fill="#F4581C"/></svg>